# xmcd CD database file
#
# Track frame offsets:
#	150
#	14513
#	27430
#	40559
#	54190
#	67720
#	82198
#	98839
#	111799
#	124528
#	137276
#	150816
#	163937
#	177527
#	190779
#	203802
#	216976
#	230904
#	244970
#	257452
#
# Disc length: 3613 seconds
#
# Revision: 1
# Processed by: cddbd v1.5.2PL0 Copyright (c) Steve Scherf et al.
# Submitted via: CDex 1.70beta2
#
DISCID=080e1b14
DTITLE=Gene Ammons - The Ultimate Jazz Archive Set 25
DYEAR=2005
DGENRE=Jazz
TTITLE0=El Sino
TTITLE1=Ineta
TTITLE2=Wild Leo 
TTITLE3=Leaping Leo 
TTITLE4=You Go To My Head
TTITLE5=Jug Head Rumble
TTITLE6=Goodbye
TTITLE7=Don't Do Me Wrong
TTITLE8=My Foolish Heart
TTITLE9=Baby, Won't You Please Say Yes
TTITLE10=Prelude To A Kiss 
TTITLE11=You're Not The Kind
TTITLE12=Just Chips
TTITLE13=Street Of Dreams
TTITLE14=Good Time Blues
TTITLE15=Travellin' Light
TTITLE16=Redtop
TTITLE17=Fuzzy 
TTITLE18=Stairway To The Stars 
TTITLE19=Jim Dawgs
EXTD=YEAR: 2005
EXTT0=
EXTT1=
EXTT2=
EXTT3=
EXTT4=
EXTT5=
EXTT6=
EXTT7=
EXTT8=
EXTT9=
EXTT10=
EXTT11=
EXTT12=
EXTT13=
EXTT14=
EXTT15=
EXTT16=
EXTT17=
EXTT18=
EXTT19=
PLAYORDER=
